<svg width="71" height="32" viewBox="0 0 71 32" fill="none" xmlns="http://www.w3.org/2000/svg">
<path d="M5.872 26L0.976 9.488H6.64L9.184 19.784L11.728 9.488H17.152L11.992 26H5.872ZM23.3011 26.192C21.9411 26.192 20.7411 25.928 19.7011 25.4C18.6611 24.872 17.8451 24.144 17.2531 23.216C16.6771 22.272 16.3891 21.192 16.3891 19.976C16.3891 18.728 16.6851 17.648 17.2771 16.736C17.8851 15.808 18.7091 15.088 19.7491 14.576C20.7891 14.064 21.9811 13.808 23.3251 13.808C24.7011 13.808 25.9091 14.072 26.9491 14.6C27.9891 15.112 28.7971 15.832 29.3731 16.76C29.9491 17.672 30.2371 18.744 30.2371 19.976C30.2371 21.208 29.9411 22.296 29.3491 23.24C28.7731 24.168 27.9651 24.896 26.9251 25.424C25.8851 25.936 24.6771 26.192 23.3011 26.192ZM23.3491 22.592C24.0051 22.592 24.5411 22.352 24.9571 21.872C25.3891 21.376 25.6051 20.744 25.6051 19.976C25.6051 19.208 25.3971 18.584 24.9811 18.104C24.5651 17.608 24.0371 17.36 23.3971 17.36C22.7091 17.36 22.1491 17.608 21.7171 18.104C21.3011 18.584 21.0931 19.208 21.0931 19.976C21.0931 20.744 21.3011 21.376 21.7171 21.872C22.1491 22.352 22.6931 22.592 23.3491 22.592ZM31.4622 26V23.432L35.8062 17.288H31.6302V13.976H41.6142V16.568L37.4862 22.688H41.7102V26H31.4622ZM43.1809 26V23.432L47.5249 17.288H43.3489V13.976H53.3329V16.568L49.2049 22.688H53.4289V26H43.1809ZM61.6917 30.68C61.0837 30.68 60.5157 30.64 59.9877 30.56C59.4597 30.48 59.0437 30.384 58.7397 30.272L59.1237 26.792C59.4117 26.856 59.7237 26.904 60.0597 26.936C60.3957 26.984 60.7237 27.008 61.0437 27.008C62.1157 27.008 62.8837 26.784 63.3477 26.336C63.8277 25.888 64.0677 25.2 64.0677 24.272V22.904C63.6837 23.88 63.1397 24.592 62.4357 25.04C61.7317 25.472 60.8997 25.688 59.9397 25.688C58.4517 25.688 57.2997 25.152 56.4837 24.08C55.6677 22.992 55.2597 21.464 55.2597 19.496V13.976H60.3237V19.76C60.3237 21.184 60.8277 21.896 61.8357 21.896C62.4597 21.896 62.9557 21.64 63.3237 21.128C63.7077 20.616 63.8997 19.944 63.8997 19.112V13.976H68.9637V23.192C68.9637 25.752 68.3317 27.64 67.0677 28.856C65.8037 30.072 64.0117 30.68 61.6917 30.68Z" fill="#F4F4F5"/>
</svg>
